<svg xmlns="http://www.w3.org/2000/svg" height="591pt" version="1.1" viewBox="1 -91 591.6 591" width="591pt">
<g id="surface1">
<path d="M 428.691406 204.5 L 163.308594 204.5 L 193.929688 102.429688 L 398.070312 102.429688 Z M 428.691406 204.5 " style=" stroke:none;fill-rule:nonzero;fill:rgb(100%,63.529412%,18.823529%);fill-opacity:1;" />
<path d="M 592 408.636719 L 0 408.636719 L 30.621094 306.570312 L 561.378906 306.570312 Z M 592 408.636719 " style=" stroke:none;fill-rule:nonzero;fill:rgb(100%,63.529412%,18.823529%);fill-opacity:1;" />
<path d="M 163.308594 408.636719 L 0 408.636719 L 30.621094 306.570312 L 132.691406 306.570312 Z M 163.308594 408.636719 " style=" stroke:none;fill-rule:nonzero;fill:rgb(99.215686%,71.372549%,18.431373%);fill-opacity:1;" />
<path d="M 326.621094 408.636719 L 163.308594 408.636719 L 193.929688 306.570312 L 296 306.570312 Z M 326.621094 408.636719 " style=" stroke:none;fill-rule:nonzero;fill:rgb(99.215686%,71.372549%,18.431373%);fill-opacity:1;" />
<path d="M 510.34375 306.570312 L 81.65625 306.570312 L 112.277344 204.5 L 479.722656 204.5 Z M 510.34375 306.570312 " style=" stroke:none;fill-rule:nonzero;fill:rgb(100%,63.529412%,18.823529%);fill-opacity:1;" />
<path d="M 244.964844 306.570312 L 81.65625 306.570312 L 112.277344 204.5 L 214.34375 204.5 Z M 244.964844 306.570312 " style=" stroke:none;fill-rule:nonzero;fill:rgb(99.215686%,71.372549%,18.431373%);fill-opacity:1;" />
<path d="M 408.277344 306.570312 L 244.964844 306.570312 L 275.585938 204.5 L 377.65625 204.5 Z M 408.277344 306.570312 " style=" stroke:none;fill-rule:nonzero;fill:rgb(99.215686%,71.372549%,18.431373%);fill-opacity:1;" />
<path d="M 489.929688 408.636719 L 326.621094 408.636719 L 357.242188 306.570312 L 459.308594 306.570312 Z M 489.929688 408.636719 " style=" stroke:none;fill-rule:nonzero;fill:rgb(99.215686%,71.372549%,18.431373%);fill-opacity:1;" />
<path d="M 326.621094 204.5 L 163.308594 204.5 L 193.929688 102.429688 L 296 102.429688 Z M 326.621094 204.5 " style=" stroke:none;fill-rule:nonzero;fill:rgb(99.215686%,71.372549%,18.431373%);fill-opacity:1;" />
<path d="M 132.691406 82.015625 C 129.199219 61.082031 112.796875 44.679688 91.863281 41.191406 C 112.796875 37.699219 129.199219 21.296875 132.691406 0.363281 C 136.179688 21.296875 152.582031 37.699219 173.515625 41.191406 C 152.582031 44.679688 136.179688 61.082031 132.691406 82.015625 Z M 132.691406 82.015625 " style=" stroke:none;fill-rule:nonzero;fill:rgb(99.215686%,71.372549%,18.431373%);fill-opacity:1;" />
</g>
</svg>