<svg id="Layer_1" height="512" viewBox="0 0 128 128" width="512" xmlns="http://www.w3.org/2000/svg" data-name="Layer 1"><path d="m12 27.751h104v72.497h-104z" fill="#f0f0f0"/><g fill="#d60a2e"><path d="m77.507 65.911 5.48-7.056-8.357 4.179 1.37-5.617-5.938 4.708 2.569-12.255-6.165 4.573-2.466-7.036-2.466 7.036-6.165-4.573 2.568 12.255-5.937-4.708 1.37 5.617-8.357-4.179 5.48 7.056-5.48.959 8.404 4.578-1.832 3.494 11.644-1.761v7.412h.771.771v-7.412l11.644 1.761-1.832-3.494 8.404-4.578z"/><path d="m12 27.751h21.333v72.497h-21.333z"/><path d="m94.667 27.751h21.333v72.497h-21.333z"/></g></svg>