<svg id="Layer_1" height="512" viewBox="0 0 128 128" width="512" xmlns="http://www.w3.org/2000/svg" data-name="Layer 1"><path d="m12 27.751h104v72.497h-104z" fill="#d60a2e"/><g fill="#f0f0f0"><path d="m59.012 61.769s-7.253-4.533-3.886-14.376a12.453 12.453 0 0 1 12.822-8.807s-2.762 2.09-1.684 4.533c2.115 4.792 1.036 9.714-3.238 12.693s-4.014 5.957-4.014 5.957z"/><path d="m64.738 60.245s2.305-8.236 12.7-7.779a12.453 12.453 0 0 1 12.062 9.82s-2.784-2.061-4.824-.338c-4 3.38-9.028 3.732-13.091.47s-6.847-2.173-6.847-2.173z"/><path d="m67.353 65.514s8.525-.7 11.7 9.209a12.453 12.453 0 0 1 -5.023 14.722s.97-3.326-1.354-4.645c-4.559-2.58-6.633-7.172-4.985-12.114s-.338-7.172-.338-7.172z"/><path d="m63.514 69.58s3.5 7.8-4.776 14.106a12.453 12.453 0 0 1 -15.555.178s3.458-.2 3.922-2.828c.91-5.159 4.547-8.646 9.756-8.741s6.653-2.715 6.653-2.715z"/><path d="m58.527 67.867s-6.641 5.39-14.859-.988a12.453 12.453 0 0 1 -4.168-14.986s1.081 3.291 3.742 3.063c5.219-.447 9.525 2.171 10.956 7.18s4.329 5.731 4.329 5.731z"/></g></svg>