<?xml version="1.0" encoding="iso-8859-1"?>
<!-- Generator: Adobe Illustrator 19.0.0, SVG Export Plug-In . SVG Version: 6.00 Build 0)  -->
<svg version="1.1" id="Capa_1" xmlns="http://www.w3.org/2000/svg" xmlns:xlink="http://www.w3.org/1999/xlink" x="0px" y="0px"
	 viewBox="0 0 496 496" style="enable-background:new 0 0 496 496;" xml:space="preserve">
<path style="fill:#2E2F30;" d="M0,304.8v64.8c0,27.2,21.6,48.8,48,48.8h400c26.4,0,48-21.6,48-48.8v-64.8H0z"/>
<path style="fill:#CC3434;" d="M448,77.6H48c-26.4,0-48,21.6-48,48.8v64.8h496v-64.8C496,99.2,474.4,77.6,448,77.6z"/>
<rect y="189.6" style="fill:#F5FBFF;" width="496" height="116"/>
<path d="M448,418.4c26.4,0,48-21.6,48-48.8v-64.8H315.2L448,418.4z"/>
<path style="fill:#BA2B2B;" d="M448,77.6H48l132.8,113.6H496v-64.8C496,99.2,474.4,77.6,448,77.6z"/>
<polygon style="fill:#E6EFF4;" points="316,306.4 496,306.4 496,189.6 180,189.6 "/>
<path style="fill:#A32323;" d="M448,77.6H48l370.4,113.6H496v-64.8C496,99.2,474.4,77.6,448,77.6z"/>
<polygon style="fill:#CFDEE5;" points="496,214.4 496,189.6 414.4,189.6 "/>
<path d="M496,369.6c0,27.2-21.6,48.8-48,48.8H48c-26.4,0-48-21.6-48-48.8"/>
<g transform="matrix(3.1312 0 0 3.4052 -158.74 -207.31)">
	<path style="fill:#007A3D;" d="M97.772,147.488l-0.8-0.8l0.8-0.8l0.8-0.8l0.8,0.8l0.8,0.8l0,0.8l-0.8,0.8L97.772,147.488
		L97.772,147.488z M90.572,146.688c0,0-0.8-0.8-1.6-0.8c-0.8-0.8-0.8-0.8-0.8-0.8c0.8,0.8,2.4,0.8,2.4,0.8c1.6-0.8,2.4-3.2,0.8-4.8
		l-0.8-0.8c0,0,0,0,0.8-0.8c0.8,0,0.8-0.8,0.8-0.8c0-0.8,0.8-0.8,0.8-0.8l0.8,2.4c0,0,0,0,1.6,0h1.6v-0.8c0,0,0-0.8-0.8-0.8v-0.8
		l0.8-0.8c0.8,0,0.8-0.8,0.8-0.8s0.8-1.6,1.6-1.6c0,0,0,0.8,0,2.4v2.4h23.2v-8h-0.8h-0.8l-0.8,0.8l-0.8,0.8v5.6h-8.8
		c-4.8,0-8.8,0-8.8,0s4-5.6,4.8-6.4c0,0,0-0.8,0.8-0.8l0.8-0.8c0,0,0,0,0.8-0.8l0.8-0.8c0,0,1.6-2.4,3.2-4.8
		c1.6-2.4,3.2-4.8,3.2-4.8s0,0,0,0.8c0,1.6,0.8,2.4,0.8,2.4c0,0.8,0,0.8-0.8,0.8c0,0-0.8,0.8-4.8,6.4c-2.4,3.2-4.8,6.4-4.8,6.4
		s2.4,0,4.8,0h4.8v-1.6c0-0.8,0-1.6,0-1.6c0-0.8,4-2.4,4-2.4s0.8,0.8,1.6,1.6l1.6,1.6v11.2h-28.8v0.8c0,1.6-0.8,2.4-1.6,2.4
		C93.772,146.688,92.172,146.688,90.572,146.688L90.572,146.688z M126.572,133.888c0-6.4,0-8.8,0-8.8s0.8,0,0.8,0.8
		c0.8,0.8,0.8,0.8,1.6,1.6c0.8,0.8,0.8,0.8,0.8,0.8c-0.8,0.8-0.8,0-0.8,6.4v5.6h1.6c1.6,0,1.6,0,2.4-0.8s0.8-0.8,0.8,0.8
		c0,0,0,0.8,0,1.6v0.8h-3.2h-3.2v-8.8H126.572z"/>
	<path style="fill:#005629;" d="M144.172,140.288c0-2.4,0-3.2,1.6-4c0.8-0.8,1.6-0.8,3.2-0.8h0.8v-0.8c0-1.6,0-1.6-0.8-1.6
		s-0.8-0.8,0-0.8c0,0,0.8-0.8,1.6-1.6c0.8-0.8,0.8-0.8,1.6-0.8c0,0,0,2.4,0,5.6v4h2.4v-5.6c0-4.8,0-5.6,0-5.6s0,0-0.8,0v-0.8
		c0,0,0.8-0.8,1.6-1.6s0.8-0.8,1.6-0.8c0,0,0,3.2,0,7.2v7.2h2.4v-15.2h-0.8l-0.8-0.8l0.8-0.8c0.8-0.8,1.6-0.8,1.6-1.6
		c0.8-0.8,0.8-1.6,0.8,10.4v11.2h-17.6L144.172,140.288L144.172,140.288z M148.972,138.688v-0.8h-0.8c-0.8,0-1.6,0.8-1.6,1.6l0,0
		h2.4V138.688L148.972,138.688z M163.372,133.888c0-6.4,0-8.8,0-8.8s0.8,0,0.8,0.8c0.8,0.8,0.8,0.8,1.6,1.6s0.8,0.8,0.8,0.8
		c-0.8,0.8-0.8,0-0.8,6.4v4.8h1.6c1.6,0,1.6,0,2.4-0.8h0.8v0.8c0,0,0,0.8,0,1.6v0.8h-3.2h-3.2v-8H163.372z M150.572,125.088
		C150.572,124.288,149.772,124.288,150.572,125.088C149.772,124.288,149.772,124.288,150.572,125.088c0.8,0,1.6-0.8,2.4-1.6l0.8-0.8
		h0.8c0.8,0,0.8,0,0.8,0s0.8-0.8,0.8-1.6c0,0,0,0,0.8,0c0,0.8,0,1.6-0.8,1.6c0,0-0.8,0-1.6,0c-0.8,0-0.8,0-0.8,0
		C152.972,125.088,151.372,125.088,150.572,125.088L150.572,125.088z M152.172,121.888c-0.8,0-1.6-1.6-1.6-2.4v-0.8
		c0.8,0,0.8,0,0.8,1.6C152.972,121.888,152.972,121.888,152.172,121.888L152.172,121.888z"/>
</g>
<g>
</g>
<g>
</g>
<g>
</g>
<g>
</g>
<g>
</g>
<g>
</g>
<g>
</g>
<g>
</g>
<g>
</g>
<g>
</g>
<g>
</g>
<g>
</g>
<g>
</g>
<g>
</g>
<g>
</g>
</svg>
