<svg id="Layer_1" height="512" viewBox="0 0 128 128" width="512" xmlns="http://www.w3.org/2000/svg" data-name="Layer 1"><path d="m12 27.751h104v72.497h-104z" fill="#f0f0f0"/><g fill="#d60a2e"><path d="m12 27.751h104v10.357h-104z"/><path d="m12 48.465h104v10.357h-104z"/><path d="m12 69.178h104v10.357h-104z"/><path d="m12 89.892h104v10.357h-104z"/></g><path d="m12 27.751h48.333v31.07h-48.333z" fill="#0b55b1"/><path d="m49 44.612-3.493-2.096 2.353-3.42-3.824 1.398-1.158-3.695-1.158 3.695-3.824-1.398 2.353 3.42-3.493 2.096 3.935.183-.552 4.118 2.739-3.015 2.739 3.015-.551-4.118z" fill="#fed953"/><path d="m37.754 51.274a7.987 7.987 0 1 1 3.006-15.385 10.287 10.287 0 1 0 0 14.795 7.956 7.956 0 0 1 -3.006.59z" fill="#fed953"/></svg>