<svg id="Layer_1" height="512" viewBox="0 0 128 128" width="512" xmlns="http://www.w3.org/2000/svg" data-name="Layer 1"><path d="m12 27.751h104v72.497h-104z" fill="#d60a2e"/><g fill="#f0f0f0"><path d="m12 64h104v36.249h-104z"/><path d="m28.7 46.075a11.669 11.669 0 0 1 7.45-10.875 11.675 11.675 0 1 0 0 21.751 11.669 11.669 0 0 1 -7.45-10.876z"/><path d="m42.75 36.067.956 1.938 2.139.311-1.548 1.508.366 2.13-1.913-1.005-1.913 1.005.366-2.13-1.548-1.508 2.139-.311z"/><path d="m38.834 48.197.956 1.937 2.138.311-1.547 1.509.365 2.129-1.912-1.005-1.913 1.005.365-2.129-1.547-1.509 2.138-.311z"/><path d="m46.666 48.197.957 1.937 2.138.311-1.547 1.509.365 2.129-1.913-1.005-1.912 1.005.365-2.129-1.547-1.509 2.138-.311z"/><path d="m36.56 40.617.957 1.937 2.138.311-1.547 1.508.365 2.13-1.913-1.005-1.912 1.005.365-2.13-1.547-1.508 2.138-.311z"/><path d="m48.94 40.617.956 1.937 2.138.311-1.547 1.508.365 2.13-1.912-1.005-1.913 1.005.365-2.13-1.547-1.508 2.138-.311z"/></g></svg>