<svg id="Layer_1" height="512" viewBox="0 0 128 128" width="512" xmlns="http://www.w3.org/2000/svg" data-name="Layer 1"><path d="m12 27.751h104v72.497h-104z" fill="#0b55b1"/><path d="m116 27.751h-14.864l-37.136 25.887-37.136-25.887h-14.864v10.362l37.136 25.887-37.136 25.887v10.362h14.864l37.136-25.887 37.136 25.887h14.864v-10.362l-37.136-25.887 37.136-25.887z" fill="#f0f0f0"/><path d="m116 27.751h-.429l-51.571 35.95-51.571-35.95h-.429v4.706l48.41 33.746-48.41 33.747v.299h6.751l45.249-31.543 45.249 31.543h6.751v-.299l-48.41-33.747 48.41-33.746z" fill="#d60a2e"/><path d="m116 54.667h-42.667v-26.916h-18.666v26.916h-42.667v18.666h42.667v26.916h18.666v-26.916h42.667z" fill="#f0f0f0"/><path d="m59.667 95.249v-26.916h-42.667v-8.666h42.667v-26.916h8.666v26.916h42.667v8.666h-42.667v26.916z" fill="#d60a2e"/></svg>